<?xml version="1.0" encoding="utf-8"?>
<!-- Generator: Adobe Illustrator 16.0.0, SVG Export Plug-In . SVG Version: 6.00 Build 0)  -->
<!DOCTYPE svg PUBLIC "-//W3C//DTD SVG 1.1//EN" "http://www.w3.org/Graphics/SVG/1.1/DTD/svg11.dtd">
<svg version="1.1" id="Layer_1" xmlns="http://www.w3.org/2000/svg" xmlns:xlink="http://www.w3.org/1999/xlink" x="0px" y="0px"
	 width="148.691px" height="89.439px" viewBox="0 0 148.691 89.439" enable-background="new 0 0 148.691 89.439"
	 xml:space="preserve">
<g>
	<g>
		<defs>
			<polygon id="SVGID_1_" points="1.44,60.641 19.539,60.641 36.942,43.239 54.342,60.641 69.296,60.641 35.369,26.711 			"/>
		</defs>
		<use xlink:href="#SVGID_1_"  overflow="visible" fill="#FFFFFF"/>
		<clipPath id="SVGID_2_">
			<use xlink:href="#SVGID_1_"  overflow="visible"/>
		</clipPath>
		<rect x="1.44" y="26.711" clip-path="url(#SVGID_2_)" fill="#FFFFFF" width="67.856" height="33.929"/>
	</g>
</g>
<g>
	<g>
		<defs>
			<polygon id="SVGID_3_" points="25.72,60.641 51.896,60.641 86.363,26.175 120.828,60.641 147.007,60.641 86.363,0 			"/>
		</defs>
		<use xlink:href="#SVGID_3_"  overflow="visible" fill="#FFFFFF"/>
		<clipPath id="SVGID_4_">
			<use xlink:href="#SVGID_3_"  overflow="visible"/>
		</clipPath>
		<rect x="25.72" clip-path="url(#SVGID_4_)" fill="#FFFFFF" width="121.287" height="60.641"/>
	</g>
</g>
<g>
	<g>
		<defs>
			<path id="SVGID_5_" d="M44.266,16.923c0.003-0.036,0.007-0.068,0.007-0.1C44.273,16.823,44.271,16.859,44.266,16.923
				 M34.99,16.277c-1.45,0-3.69-0.612-5.216-0.612c-7.538,0-11.34,5.314-11.34,5.314c2.852-1.781,7.091-3.323,11.308-3.323
				c2.867,0,3.35,0.709,6.571,0.709c8.403,0,7.188-8.611,7.188-8.611C43.501,10.575,43.046,16.277,34.99,16.277 M12.199,0v10.822
				H1.152v10.335h11.046v10.99h9.74v-8.596c0-2.572,2.379-2.452,4.989-2.452c5.288,0,5.911,1.458,9.513,1.458
				c7.007,0,7.75-4.867,7.825-5.634c-0.168,1.153-3.065,3.702-7.472,3.702c-3.575,0-3.118-0.829-7.149-0.829
				c-8.806,0-13.057,4.515-13.057,4.515c0-7.676,6.522-10.102,11.886-10.102h4.513c4.813,0,8.968-2.857,8.968-6.796V1.914
				c0,2.199-3.139,6.89-10.556,6.89c-5.679,0-9.46,3.862-9.46,3.862V0H12.199L12.199,0z"/>
		</defs>
		<use xlink:href="#SVGID_5_"  overflow="visible" fill="#FFFFFF"/>
		<clipPath id="SVGID_6_">
			<use xlink:href="#SVGID_5_"  overflow="visible"/>
		</clipPath>
		<polygon clip-path="url(#SVGID_6_)" fill="#FFFFFF" points="60.79,16.073 22.934,53.928 -14.921,16.073 22.934,-21.781 		"/>
	</g>
</g>
<g>
	<g>
		<defs>
			<path id="SVGID_7_" d="M0,66.035v3.992h4.215v18.301h6.235V70.027h4.197v-3.992H0z M50.226,66.035l0.355,17.623l-4.824-17.623
				h-8.774v22.293h5.639l-0.414-18.104l4.918,18.104h8.736V66.035H50.226L50.226,66.035z M99.587,88.328h6.233V66.035h-6.233V88.328
				z M117.882,68.619l1.368,10.521h-2.827L117.882,68.619z M112.873,66.035l-3.981,22.293h6.23l0.742-5.479h3.943l0.74,5.479h6.376
				l-4.09-22.293H112.873z M143.055,66.035l0.362,17.623l-4.83-17.623h-8.776v22.293h5.643l-0.417-18.104l4.92,18.104h8.736V66.035
				H143.055L143.055,66.035z M23.653,84.326c-0.222-0.205-0.333-0.621-0.333-1.252V71.32c0-0.621,0.111-1.035,0.333-1.246
				c0.223-0.209,0.669-0.314,1.343-0.314c0.66,0,1.103,0.105,1.323,0.314c0.222,0.211,0.337,0.625,0.337,1.246v11.754
				c0,0.631-0.115,1.045-0.337,1.252c-0.22,0.205-0.662,0.311-1.323,0.311C24.323,84.637,23.876,84.531,23.653,84.326
				 M20.501,66.066c-0.909,0.199-1.635,0.549-2.188,1.051c-0.518,0.461-0.878,1.025-1.09,1.697c-0.21,0.668-0.314,1.746-0.314,3.225
				v10.299c0,1.482,0.106,2.557,0.323,3.234c0.216,0.678,0.575,1.244,1.082,1.705c0.54,0.49,1.217,0.83,2.036,1.027
				c0.814,0.195,2.364,0.293,4.647,0.293c2.271,0,3.813-0.098,4.63-0.293c0.816-0.197,1.494-0.537,2.034-1.027
				c0.505-0.451,0.858-1.004,1.063-1.66c0.203-0.656,0.305-1.75,0.305-3.279V72.039c0-1.479-0.104-2.557-0.317-3.225
				c-0.207-0.672-0.57-1.236-1.088-1.697c-0.553-0.502-1.275-0.852-2.168-1.051c-0.896-0.201-2.382-0.299-4.459-0.299
				C22.907,65.768,21.41,65.865,20.501,66.066 M63.4,66.066c-0.901,0.199-1.628,0.549-2.178,1.051
				c-0.518,0.461-0.88,1.025-1.09,1.697c-0.212,0.668-0.317,1.746-0.317,3.225v10.299c0,1.482,0.108,2.557,0.328,3.234
				c0.213,0.678,0.572,1.244,1.08,1.705c0.539,0.49,1.218,0.83,2.034,1.027c0.816,0.195,2.365,0.293,4.646,0.293
				c2.223,0,3.732-0.098,4.53-0.293c0.798-0.197,1.464-0.537,1.993-1.027c0.492-0.461,0.843-1.027,1.054-1.705
				c0.208-0.678,0.313-1.752,0.313-3.234v-6.125h-7.744v3.992h1.765v2.869c0,0.619-0.122,1.035-0.37,1.244
				c-0.246,0.211-0.749,0.318-1.504,0.318c-0.766,0-1.276-0.107-1.523-0.318c-0.243-0.209-0.37-0.625-0.37-1.244V71.32
				c0-0.621,0.126-1.035,0.37-1.246c0.248-0.209,0.758-0.314,1.523-0.314c0.756,0,1.259,0.105,1.504,0.314
				c0.248,0.211,0.37,0.625,0.37,1.246v1.875h5.944v-1.156c0-1.49-0.104-2.57-0.315-3.24c-0.21-0.672-0.562-1.232-1.054-1.682
				c-0.541-0.49-1.264-0.838-2.174-1.043c-0.903-0.205-2.343-0.307-4.312-0.307C65.8,65.768,64.3,65.865,63.4,66.066 M86.042,84.318
				c-0.246-0.209-0.371-0.625-0.371-1.244V71.32c0-0.621,0.125-1.035,0.371-1.246c0.249-0.209,0.753-0.314,1.523-0.314
				c0.755,0,1.256,0.105,1.504,0.314c0.243,0.211,0.368,0.625,0.368,1.246v8.646l-1.098-1.352l-1.82,1.727l2.883,3.229
				c-0.037,0.4-0.185,0.678-0.442,0.832c-0.258,0.154-0.725,0.234-1.396,0.234C86.795,84.637,86.291,84.529,86.042,84.318
				 M82.997,66.066c-0.907,0.199-1.636,0.549-2.186,1.051c-0.518,0.461-0.882,1.025-1.092,1.697
				c-0.21,0.668-0.314,1.746-0.314,3.225v10.299c0,2.512,0.492,4.182,1.474,5.014c0.986,0.83,2.909,1.244,5.767,1.244
				c2.173,0,3.666-0.045,4.477-0.141c0.81-0.094,1.432-0.262,1.864-0.504l1.242,1.488l2.144-1.637l-1.404-1.652
				c0.206-0.389,0.346-0.809,0.429-1.256c0.084-0.443,0.129-1.051,0.129-1.822v-0.734V72.039c0-1.479-0.104-2.557-0.315-3.225
				c-0.209-0.672-0.573-1.236-1.089-1.697c-0.553-0.502-1.277-0.852-2.17-1.051c-0.894-0.201-2.38-0.299-4.46-0.299
				C85.401,65.768,83.904,65.865,82.997,66.066"/>
		</defs>
		<use xlink:href="#SVGID_7_"  overflow="visible" fill="#9C9C9C"/>
		<clipPath id="SVGID_8_">
			<use xlink:href="#SVGID_7_"  overflow="visible"/>
		</clipPath>
		<rect y="65.768" clip-path="url(#SVGID_8_)" fill="#9C9C9C" width="148.692" height="23.672"/>
	</g>
</g>
</svg>
